<?xml version="1.0" encoding="UTF-8" standalone="no"?>
<svg
   id="svg2"
   viewBox="0 0 326.35502 326.35502"
   version="1.1"
   width="326.35501"
   height="326.35501"
   xmlns="http://www.w3.org/2000/svg"
   xmlns:svg="http://www.w3.org/2000/svg"
   xmlns:rdf="http://www.w3.org/1999/02/22-rdf-syntax-ns#"
   xmlns:cc="http://creativecommons.org/ns#"
   xmlns:dc="http://purl.org/dc/elements/1.1/">
  <defs
     id="defs4" />
  <g
     id="layer3"
     transform="translate(-138.00235,-104.14091)">
    <g
       id="g4265"
       transform="translate(16.916065,23.682491)">
      <g
         id="g3">
        <path
           style="fill:#ffffff;fill-opacity:0.7;stroke:#ffffff;stroke-width:2;stroke-miterlimit:4;stroke-dasharray:none;stroke-opacity:1"
           d="m 284.26609,155.84699 c -89.57613,0 -162.17993,70.43861 -162.17993,157.34339 0,6.17225 0.37441,12.24749 1.08709,18.23447 h 322.18109 c 0.71267,-5.98688 1.08709,-12.06276 1.08709,-18.23447 0,-86.90123 -72.60472,-157.34339 -162.17992,-157.34339 z"
           id="path4559-3" />
        <g
           id="g1"
           transform="translate(-1.3450684e-4,74.388575)">
          <path
             style="fill:#7cfc7c;fill-opacity:1;stroke:#ffffff;stroke-opacity:1"
             d="m 284.04643,93.38188 v 53.156 c -10.481,0 -20.57,1.656 -30.031,4.7188 l -16.312,-50.281 c 14.397,-4.8256 29.927,-7.1432 46.344,-7.5938 z"
             id="path3092-3" />
          <path
             style="fill:#fcfc7c;fill-opacity:1;stroke:#ffffff;stroke-opacity:1"
             d="m 286.92643,93.63188 c 14.27,0.18636 28.826,2.7395 43.594,7.0938 l -16.438,50.531 c -9.4519,-3.0597 -19.53,-4.7155 -30,-4.7188 v -52.906 c 0.94898,-0.009 1.8924,-0.0124 2.8438,0 z"
             id="path3117-3" />
          <path
             style="fill:#fcbb91;fill-opacity:1;stroke:#ffffff;stroke-opacity:1"
             d="m 330.45643,100.97188 c 14.484,4.5584 28.392,11.84 41.938,21.125 l -31.188,42.938 c -8.1653,-5.9227 -17.293,-10.605 -27.094,-13.781 l 16.344,-50.281 z"
             id="path3119-6" />
          <path
             style="fill:#fc9191;fill-opacity:1;stroke:#ffffff;stroke-opacity:1"
             d="m 372.26643,122.31188 c 12.366,8.8111 23.392,20.015 33.406,33.031 l -42.906,31.156 c -6.0192,-8.2308 -13.307,-15.481 -21.562,-21.469 l 31.062,-42.719 z"
             id="path3121-2" />
          <path
             style="fill:#c08080;fill-opacity:1;stroke:#ffffff;stroke-opacity:1"
             d="m 405.45643,155.50188 c 9.0384,12.201 16.061,26.276 21.562,41.75 l -50.375,16.344 c -3.2141,-9.8027 -7.911,-18.938 -13.875,-27.094 z"
             id="path3123-8" />
          <path
             style="fill:#7cfcfc;fill-opacity:1;stroke:#ffffff;stroke-opacity:1"
             d="m 237.60643,100.72188 16.406,50.531 c -9.8061,3.1744 -18.924,7.8572 -27.094,13.781 l -31.031,-42.75 c 12.201,-9.0384 26.245,-16.061 41.719,-21.562 z"
             id="path3129-8" />
          <path
             style="fill:#7c7cfc;fill-opacity:1;stroke:#ffffff;stroke-opacity:1"
             d="m 195.70643,122.10188 31.188,42.938 c -8.2497,5.9852 -15.515,13.243 -21.531,21.469 l -42.688,-31.031 c 8.8111,-12.366 20.015,-23.361 33.031,-33.375 z"
             id="path3131-9" />
          <path
             style="fill:#7c7cbc;fill-opacity:1;stroke:#ffffff;stroke-opacity:1"
             d="m 162.45643,155.35188 42.906,31.156 c -5.9605,8.1493 -10.691,17.268 -13.906,27.062 l -50.094,-16.281 c 4.5585,-14.484 11.809,-28.392 21.094,-41.938 z"
             id="path3133-2" />
        </g>
        <g
           transform="rotate(-91.696297,261.27397,357.94443)"
           id="g4315"
           style="fill:#ffffff;fill-opacity:1;stroke:none;stroke-opacity:1">
          <path
             style="fill:#ffffff;fill-opacity:1;stroke:none;stroke-opacity:1"
             id="rect4171-4-2"
             d="m 387.62,293.47 c 10.192,-8.5026 12.22,-6.1812 3.4881,3.5824 l -82.605,91.596 -14.65,-15.046 z" />
          <path
             style="fill:#ffffff;fill-opacity:1;stroke:none;stroke-opacity:1"
             id="path4191-8"
             d="m 326.28,393.77 a 32.5775,37.881581 0 1 1 -65.155,0 32.5775,37.881581 0 1 1 65.155,0 z"
             transform="matrix(0.30351,0.31171,-0.26807,0.26102,317.6,186.79)" />
          <path
             style="fill:#ffffff;fill-opacity:1;stroke:none;stroke-width:2.0658;stroke-opacity:1"
             id="path4198-5"
             d="m 326.28,393.77 a 32.5775,37.881581 0 1 1 -65.155,0 32.5775,37.881581 0 1 1 65.155,0 z"
             transform="matrix(0.21157,0.21729,-0.18687,0.18195,312.63,245.66)" />
        </g>
      </g>
    </g>
  </g>
  <metadata
     id="metadata174">
    <rdf:RDF>
      <cc:Work>
        <dc:format>image/svg+xml</dc:format>
        <dc:type
           rdf:resource="http://purl.org/dc/dcmitype/StillImage" />
        <cc:license
           rdf:resource="http://creativecommons.org/publicdomain/zero/1.0/" />
        <dc:publisher>
          <cc:Agent
             rdf:about="http://openclipart.org/">
            <dc:title>Openclipart</dc:title>
          </cc:Agent>
        </dc:publisher>
        <dc:date>2013-05-15T07:43:23</dc:date>
        <dc:description>Flipped the colors. When the value gets higher the more danger there is the redder the color should get.</dc:description>
        <dc:source>https://openclipart.org/detail/178160/pressure-by-peterm-178160</dc:source>
        <dc:creator>
          <cc:Agent>
            <dc:title>PeterM</dc:title>
          </cc:Agent>
        </dc:creator>
        <dc:subject>
          <rdf:Bag>
            <rdf:li>meter</rdf:li>
            <rdf:li>pressure</rdf:li>
          </rdf:Bag>
        </dc:subject>
        <dc:contributor>
          <cc:Agent>
            <dc:title>remixed by Juhele</dc:title>
          </cc:Agent>
        </dc:contributor>
      </cc:Work>
      <cc:License
         rdf:about="http://creativecommons.org/publicdomain/zero/1.0/">
        <cc:permits
           rdf:resource="http://creativecommons.org/ns#Reproduction" />
        <cc:permits
           rdf:resource="http://creativecommons.org/ns#Distribution" />
        <cc:permits
           rdf:resource="http://creativecommons.org/ns#DerivativeWorks" />
      </cc:License>
    </rdf:RDF>
  </metadata>
</svg>
