<?xml version="1.0" encoding="UTF-8" standalone="no"?>
<!-- Generator: Adobe Illustrator 13.0.2, SVG Export Plug-In . SVG Version: 6.00 Build 14948)  -->

<svg
   id="Layer_1"
   enable-background="new 0 0 279.592 286.56"
   xml:space="preserve"
   viewBox="0 0 286.55999 286.56"
   version="1.0"
   y="0px"
   x="0px"
   width="286.56"
   height="286.56"
   sodipodi:docname="cup.svg"
   inkscape:version="1.1.1 (3bf5ae0d25, 2021-09-20)"
   xmlns:inkscape="http://www.inkscape.org/namespaces/inkscape"
   xmlns:sodipodi="http://sodipodi.sourceforge.net/DTD/sodipodi-0.dtd"
   xmlns="http://www.w3.org/2000/svg"
   xmlns:svg="http://www.w3.org/2000/svg"
   xmlns:rdf="http://www.w3.org/1999/02/22-rdf-syntax-ns#"
   xmlns:cc="http://creativecommons.org/ns#"
   xmlns:dc="http://purl.org/dc/elements/1.1/"><sodipodi:namedview
   id="namedview12"
   pagecolor="#ffffff"
   bordercolor="#666666"
   borderopacity="1.0"
   inkscape:pageshadow="2"
   inkscape:pageopacity="0.0"
   inkscape:pagecheckerboard="true"
   showgrid="false"
   inkscape:zoom="2.1984925"
   inkscape:cx="143.28"
   inkscape:cy="143.28"
   inkscape:window-width="1920"
   inkscape:window-height="1051"
   inkscape:window-x="0"
   inkscape:window-y="0"
   inkscape:window-maximized="1"
   inkscape:current-layer="Layer_1" /><defs
   id="defs14">
	
	
	
	
</defs>
<path
   id="path237"
   d="m 280.07397,135.50952 c -4.38922,-7.564 -11.27691,-13.959 -20.67638,-17.174 -3.967,-1.362 -8.13281,-2.051 -12.26276,-2.083 -0.10555,-0.004 -0.21111,0 -0.27772,0 -11.15393,0.002 -21.46342,4.449 -29.7807,11.234 -8.41463,6.884 -15.12195,16.356 -19.17709,27.558 l -1.0248,2.829 h 0.0748 c -1.92252,6.137 -2.86841,12.274 -2.92888,18.199 -0.005,0.191 -0.005,0.382 -0.005,0.566 0.005,9.228 2.14286,17.979 6.45727,25.414 4.38922,7.573 11.28202,13.968 20.67637,17.179 l 0.7399,-2 -0.7399,2.006 c 3.94958,1.348 8.10207,2.032 12.22792,2.069 h 0.0922 c 0.0492,-0.005 0.1322,0 0.23365,0 11.15496,-0.005 21.45523,-4.447 29.76328,-11.226 8.38799,-6.871 15.08711,-16.313 19.15455,-27.485 l 0.0174,-0.034 0.0266,-0.075 c 2.53843,-7.058 3.78152,-14.165 3.86145,-20.998 v -0.54 c -0.0103,-9.25 -2.14183,-18.01 -6.45624,-25.45 z m -67.42162,40.73 c 0.0441,-5.307 1.01968,-10.939 3.04776,-16.538 l 0.005,-0.018 0.0133,-0.036 0.009,-0.016 c 3.2107,-8.941 8.54582,-16.2 14.37795,-20.951 5.77475,-4.719 11.79136,-6.833 16.63354,-6.826 h 0.21521 c 1.87436,0.023 3.61037,0.305 5.40992,0.918 4.16479,1.412 8.03546,4.549 10.96024,9.56 2.82845,4.839 4.56549,11.318 4.55626,18.447 v 0.538 c -0.0441,5.279 -1.0207,10.896 -3.03033,16.494 l -0.004,0.017 -0.0266,0.061 -0.0133,0.039 c -3.2107,8.929 -8.54581,16.187 -14.37795,20.925 -5.77475,4.721 -11.80058,6.841 -16.63046,6.834 h -0.23673 c -1.84771,-0.021 -3.59807,-0.311 -5.41402,-0.916 -4.14327,-1.407 -8.01394,-4.554 -10.93872,-9.554 -2.83767,-4.856 -4.56958,-11.343 -4.56548,-18.48 v -0.489 l -2.19923,-0.03 2.21357,0.04 z"
   fill="#231f20"
   style="stroke-width:1.01232;fill:#ffffff" /><path
   id="path239"
   d="m 237.06309,191.86952 c 9.53987,-24.229 11.63764,-50.683 11.64584,-81.799 0,-1.494 -0.63231,-2.959 -1.74114,-4.011 -1.10781,-1.067 -2.62964,-1.674 -4.19656,-1.674 H 27.470917 c -1.572044,0 -3.100022,0.607 -4.202707,1.663 -1.112933,1.062 -1.742161,2.528 -1.742161,4.021 0.0061,31.217 2.899161,58.893 12.816154,83.683 4.845257,12.142 11.416277,23.53 20.058418,34.185 H 215.39676 c 9.65362,-11.5 16.68375,-23.43 21.66428,-36.07 z"
   fill="#231f20"
   style="stroke-width:1.01232;fill:#ffffff" /><path
   id="path241"
   d="m 270.70729,238.48952 c -0.8967,-2.145 -3.08772,-3.563 -5.51138,-3.563 H 5.9419098 c -2.4041818,0 -4.5736842,1.382 -5.48473179,3.509 -0.92539476,2.122 -0.42016816,4.566 1.28202529,6.195 10.2807977,9.742 15.7132647,18.479 26.5945947,26.081 10.921298,7.532 26.174428,12.633 54.699747,15.807 l 0.685591,0.043 H 187.41869 l 0.85366,-0.06 c 28.03034,-3.889 42.94426,-8.98 53.79484,-16.267 10.82497,-7.36 16.47162,-15.723 27.2433,-25.523 1.76266,-1.62 2.31605,-4.08 1.41422,-6.23 z"
   fill="#231f20"
   style="stroke-width:1.01232;fill:#ffffff;fill-opacity:0.69803923" /><g
   id="g243"
   fill="#999999"
   transform="matrix(1.0248004,0,0,1,-0.00398217,-4.808606e-4)"
   style="fill:#ffffff;fill-opacity:0.69696969">
		<path
   id="path245"
   d="M 105.48,94.952 C 97.388,85.819 93.686,77.564 93.686,69.765 c 0.02,-8.257 4.114,-14.695 8.288,-19.906 4.229,-5.245 8.762,-9.751 11.346,-13.994 1.738,-2.839 2.633,-5.339 2.642,-8.062 0.015,-4.023 -2.078,-9.783 -10.286,-18.193 -2.214,-2.262 -2.137,-5.865 0.172,-8.028 2.315,-2.171 5.985,-2.103 8.202,0.167 9.251,9.44 13.494,17.897 13.511,26.054 -0.028,8.099 -4.167,14.358 -8.311,19.474 -4.21,5.163 -8.706,9.661 -11.288,14.007 -1.747,2.91 -2.667,5.542 -2.674,8.48 -0.002,4.12 1.888,9.734 8.961,17.747 2.092,2.38 1.826,5.964 -0.599,8.015 -1.094,0.932 -2.439,1.391 -3.787,1.391 -1.61,0.001 -3.22,-0.667 -4.37,-1.965 z"
   style="fill:#ffffff;fill-opacity:0.69696969" />
		<path
   id="path247"
   d="m 131.54,96.233 c -8.097,-9.14 -11.79,-17.395 -11.792,-25.193 0.019,-8.26 4.114,-14.691 8.279,-19.904 4.229,-5.247 8.762,-9.745 11.35,-13.996 1.743,-2.835 2.628,-5.333 2.635,-8.06 0.023,-4.026 -2.075,-9.775 -10.277,-18.185 -2.214,-2.268 -2.137,-5.875 0.176,-8.039 2.311,-2.172 5.98,-2.099 8.2,0.169 9.249,9.438 13.484,17.899 13.5,26.054 -0.023,8.107 -4.161,14.35 -8.303,19.479 -4.213,5.157 -8.708,9.655 -11.294,14.002 -1.74,2.908 -2.669,5.541 -2.669,8.479 -0.007,4.118 1.893,9.734 8.957,17.755 2.099,2.371 1.833,5.963 -0.583,8.015 -1.097,0.934 -2.447,1.389 -3.794,1.389 -1.65,0.001 -3.27,-0.666 -4.41,-1.965 z"
   style="fill:#ffffff;fill-opacity:0.69696969" />
		<path
   id="path249"
   d="m 160.19,96.227 c -8.086,-9.126 -11.784,-17.38 -11.784,-25.176 0.007,-8.264 4.11,-14.702 8.279,-19.915 4.228,-5.242 8.767,-9.745 11.35,-13.996 1.738,-2.833 2.634,-5.333 2.64,-8.06 0.016,-4.02 -2.075,-9.775 -10.29,-18.185 -2.208,-2.268 -2.131,-5.875 0.179,-8.039 2.309,-2.172 5.977,-2.099 8.201,0.169 9.243,9.438 13.494,17.899 13.503,26.054 -0.026,8.107 -4.159,14.35 -8.303,19.479 -4.213,5.157 -8.708,9.661 -11.296,14.011 -1.738,2.906 -2.666,5.532 -2.672,8.481 0,4.107 1.895,9.723 8.961,17.745 2.099,2.371 1.833,5.963 -0.586,8.015 -1.099,0.934 -2.448,1.382 -3.792,1.382 -1.62,0.001 -3.24,-0.66 -4.39,-1.965 z"
   style="fill:#ffffff;fill-opacity:0.69696969" />
	</g>
<metadata
   id="metadata11"><rdf:RDF><cc:Work><dc:format>image/svg+xml</dc:format><dc:type
         rdf:resource="http://purl.org/dc/dcmitype/StillImage" /><cc:license
         rdf:resource="http://creativecommons.org/publicdomain/zero/1.0/" /><dc:publisher><cc:Agent
           rdf:about="http://openclipart.org/"><dc:title>Openclipart</dc:title></cc:Agent></dc:publisher><dc:date>2012-05-07T11:59:23</dc:date><dc:description>Coffee cup with steam.</dc:description><dc:source>https://openclipart.org/detail/169909/kitchen-icon---coffee-cup-by-studiofibonacci</dc:source><dc:creator><cc:Agent><dc:title>StudioFibonacci</dc:title></cc:Agent></dc:creator><dc:subject><rdf:Bag><rdf:li>coffee</rdf:li><rdf:li>cup</rdf:li><rdf:li>icon</rdf:li><rdf:li>silhouette</rdf:li><rdf:li>steam</rdf:li><rdf:li>tea</rdf:li></rdf:Bag></dc:subject></cc:Work><cc:License
       rdf:about="http://creativecommons.org/publicdomain/zero/1.0/"><cc:permits
         rdf:resource="http://creativecommons.org/ns#Reproduction" /><cc:permits
         rdf:resource="http://creativecommons.org/ns#Distribution" /><cc:permits
         rdf:resource="http://creativecommons.org/ns#DerivativeWorks" /></cc:License></rdf:RDF></metadata></svg>
