<?xml version="1.0" encoding="UTF-8" standalone="no"?>
<!-- Created with Inkscape (http://www.inkscape.org/) -->

<svg
   width="86"
   height="86"
   id="svg2"
   version="1.1"
   xmlns:xlink="http://www.w3.org/1999/xlink"
   xmlns="http://www.w3.org/2000/svg"
   xmlns:svg="http://www.w3.org/2000/svg"
   xmlns:rdf="http://www.w3.org/1999/02/22-rdf-syntax-ns#"
   xmlns:cc="http://creativecommons.org/ns#"
   xmlns:dc="http://purl.org/dc/elements/1.1/">
  <defs
     id="defs4"><linearGradient
   id="linearGradient3789-6">
  <stop
     style="stop-color:#25c20a;stop-opacity:1"
     offset="0"
     id="stop3791-0" />
  <stop
     style="stop-color:#06726f;stop-opacity:1"
     offset="1"
     id="stop3793-4" />
</linearGradient>
<linearGradient
   xlink:href="#linearGradient3789-6"
   id="linearGradient3911"
   gradientUnits="userSpaceOnUse"
   spreadMethod="reflect"
   x1="45"
   y1="80"
   x2="45"
   y2="10"
   gradientTransform="matrix(0.95555556,0,0,-0.95555556,0,90)" />
<filter
   id="filter3537"
   height="1.8918255"
   width="1.5675253"
   y="-0.44591276"
   x="-0.28376266">
  <feGaussianBlur
     id="feGaussianBlur3539"
     stdDeviation="13.005789" />
</filter>
<radialGradient
   id="radialGradient2469"
   gradientUnits="userSpaceOnUse"
   cy="658.85"
   cx="481.38"
   gradientTransform="matrix(0.78727,-0.76553,0.73085,0.7516,-2624.3,375.08)"
   r="189.36">
  <stop
     id="stop3536"
     style="stop-color:#ffffff"
     offset="0" />
  <stop
     id="stop3538"
     style="stop-color:#ffffff;stop-opacity:0"
     offset="1" />
</radialGradient>
<radialGradient
   id="radialGradient2471"
   gradientUnits="userSpaceOnUse"
   cy="350.63"
   cx="271.67"
   gradientTransform="matrix(0.73243,0.39572,-1.2539,2.3209,-1740.2,-738.91)"
   r="197.21">
  <stop
     id="stop3546"
     style="stop-color:#ffffff"
     offset="0" />
  <stop
     id="stop3548"
     style="stop-color:#ffffff;stop-opacity:0"
     offset="1" />
</radialGradient>
<radialGradient
   id="radialGradient2473"
   gradientUnits="userSpaceOnUse"
   cy="397.86"
   cx="457.13"
   gradientTransform="matrix(-0.62972,-1.4636,1.4405,-0.6198,-2064.3,1124.5)"
   r="197.21">
  <stop
     id="stop3560"
     style="stop-color:#001651;stop-opacity:.87069"
     offset="0" />
  <stop
     id="stop3562"
     style="stop-color:#0041f1;stop-opacity:0"
     offset="1" />
</radialGradient>
<clipPath
   clipPathUnits="userSpaceOnUse"
   id="clipPath4777">
  <rect
     style="color:#000000;clip-rule:nonzero;display:inline;overflow:visible;visibility:visible;opacity:1;isolation:auto;mix-blend-mode:normal;color-interpolation:sRGB;color-interpolation-filters:linearRGB;solid-color:#000000;solid-opacity:1;fill:#529b6d;fill-opacity:0.35911602;fill-rule:nonzero;stroke:none;stroke-width:7.08661366;stroke-linecap:round;stroke-linejoin:miter;stroke-miterlimit:4;stroke-dasharray:none;stroke-dashoffset:0;stroke-opacity:1;marker:none;color-rendering:auto;image-rendering:auto;shape-rendering:auto;text-rendering:auto;enable-background:accumulate"
     id="rect4779"
     width="73.541031"
     height="44.9067"
     x="129.54826"
     y="87.98201" />
</clipPath>

	
	
	
	
	
	
	
	
	
</defs>
  <metadata
     id="metadata7">
    <rdf:RDF>
      <cc:Work
         rdf:about="">
        <dc:format>image/svg+xml</dc:format>
        <dc:type
           rdf:resource="http://purl.org/dc/dcmitype/StillImage" />
      </cc:Work>
    </rdf:RDF>
  </metadata>
  <g
     id="layer2"
     style="display:inline"
     transform="translate(0,-4)">
    <path
       style="fill:url(#linearGradient3911);fill-opacity:1;stroke:none;display:inline"
       d="M 43,90 C 19.251756,90 0,70.748244 0,47 L 0,6.2097222 C 0,4.9813498 0.98134982,4 2.2097222,4 L 43,4 83.790278,4 C 85.01865,4 86,4.9813498 86,6.2097222 L 86,47 C 86,70.748244 66.748244,90 43,90 z"
       id="rect3059" />
    <g
       id="g2462"
       transform="matrix(0.12168093,0,0,0.12168093,274.58513,9.4151943)">
      <path
         id="path2530"
         style="color:#000000;opacity:0.69855;fill:#0041f1;fill-opacity:0.52601;fill-rule:evenodd"
         d="m -1706,394.51 c 0,105.89 -88.4,191.84 -197.2,191.84 -108.9,0 -199.2,-85.97 -197.2,-191.84 2.6,-142.02 111.1,-199.87 197.2,-363.1 91.4,157.88 197.2,257.2 197.2,363.1 z" />
      <path
         id="path3520"
         style="color:#000000;opacity:0.69855;fill:url(#radialGradient2469);fill-rule:evenodd"
         d="m -1712.9,394.06 c 0,101.68 -84.8,184.2 -189.3,184.2 -104.5,0 -191.3,-82.54 -189.3,-184.2 2.5,-136.36 106.6,-191.91 189.3,-348.64 87.8,151.59 189.3,246.96 189.3,348.64 z" />
      <path
         id="path3542"
         style="color:#000000;opacity:0.69855;fill:url(#radialGradient2471);fill-rule:evenodd"
         d="m -1716.1,390.12 c 0,100.47 -83.9,182.01 -187.1,182.01 -103.3,0 -189,-81.56 -187.1,-182.01 2.5,-134.74 105.4,-189.63 187.1,-344.49 56.1,499.6 187.1,244.02 187.1,344.49 z" />
      <path
         id="path3556"
         style="color:#000000;opacity:0.69855;fill:url(#radialGradient2473);fill-rule:evenodd"
         d="m -1706,394.51 c 0,105.89 -88.4,191.84 -197.2,191.84 -108.9,0 -199.2,-85.97 -197.2,-191.84 2.6,-142.02 111.1,-199.87 197.2,-363.1 91.4,157.88 197.2,257.2 197.2,363.1 z" />
      <ellipse
         id="path3541"
         style="color:#000000;opacity:0.82319;fill:#ffffff;fill-opacity:0.80058;fill-rule:evenodd;filter:url(#filter3537)"
         transform="matrix(0.41702,-0.49235,0.48517,0.41724,-2440.8,431.47)"
         cx="680.71429"
         cy="328.327"
         rx="55"
         ry="35" />
    </g>
  </g>
</svg>
